<?xml version="1.0" standalone="no"?>
<!DOCTYPE svg PUBLIC "-//W3C//DTD SVG 20010904//EN"
 "http://www.w3.org/TR/2001/REC-SVG-20010904/DTD/svg10.dtd">

   <svg width="325" height="323" viewBox="0 0 325 323" fill="none" xmlns="http://www.w3.org/2000/svg">
<g clip-path="url(#clip0_448_6867)">
<path d="M229 -5.79657e-06C279.67 -8.01142e-06 321.16 39.25 324.75 89C324.92 91.31 325 93.65 325 96L325 285.93C325 306.4 308.4 323 287.93 323L96.3901 323C96.7101 323 97.0301 323 97.3401 322.98C117.2 322.4 133 305.9 133 285.93L133 96C133 93.65 133.08 91.31 133.25 89C136.84 39.25 178.33 -3.58171e-06 229 -5.79657e-06Z" fill="#952A7A"/>
<path d="M96 131L133 131L133 285.93C133 305.9 117.2 322.4 97.34 322.98C97.03 323 96.71 323 96.39 323L96 323C66.22 323 39.6 309.44 22 288.15C8.25 271.55 -3.18044e-06 250.24 -4.19629e-06 227C-5.21215e-06 203.76 8.24999 182.45 22 165.85C39.6 144.56 66.22 131 96 131Z" fill="url(#paint0_linear_448_6867)"/>
</g>
<defs>
<linearGradient id="paint0_linear_448_6867" x1="-4.19629e-06" y1="227" x2="133" y2="227" gradientUnits="userSpaceOnUse">
<stop stop-color="#952A7A"/>
<stop offset="1" stop-color="#67084F"/>
</linearGradient>
<clipPath id="clip0_448_6867">
<rect width="323" height="325" fill="white" transform="translate(0 323) rotate(-90)"/>
</clipPath>
</defs>
</svg>
